<?xml version="1.0" standalone="no"?>
<!DOCTYPE svg PUBLIC "-//W3C//DTD SVG 20010904//EN"
 "http://www.w3.org/TR/2001/REC-SVG-20010904/DTD/svg10.dtd">
<svg version="1.0" xmlns="http://www.w3.org/2000/svg"
 width="1024.000000pt" height="1024.000000pt" viewBox="0 0 1024.000000 1024.000000"
 preserveAspectRatio="xMidYMid meet">

<g transform="translate(0.000000,1024.000000) scale(0.100000,-0.100000)"
fill="#000000" stroke="none">
<path d="M4348 8482 c-55 -7 -53 39 -58 -966 l-5 -931 -32 -66 c-59 -120 -181
-206 -323 -228 -41 -7 -401 -11 -993 -11 -1084 0 -967 16 -967 -129 0 -85 1
-91 27 -111 l26 -21 991 3 991 3 80 28 c221 78 382 237 451 447 17 51 19 117
22 991 l3 937 -23 26 c-20 24 -31 27 -93 29 -38 1 -82 1 -97 -1z"/>
<path d="M5787 8481 c-52 -4 -72 -11 -83 -26 -13 -17 -14 -153 -12 -970 l3
-950 26 -67 c64 -166 182 -294 340 -372 159 -79 112 -76 1200 -76 l966 0 21
23 c19 20 22 35 22 109 0 67 -4 91 -18 108 l-17 21 -955 5 c-525 3 -974 7
-997 10 -63 8 -174 68 -221 118 -22 24 -53 68 -69 98 l-28 53 -3 936 -2 936
-23 21 c-28 26 -61 31 -150 23z"/>
<path d="M4805 6091 c-251 -7 -263 -10 -339 -90 -58 -63 -78 -104 -145 -296
l-56 -160 -88 -5 c-82 -5 -91 -7 -113 -33 -33 -38 -35 -132 -3 -166 24 -26 67
-44 86 -37 17 7 17 6 -12 -52 -32 -64 -45 -155 -44 -327 0 -170 9 -222 42
-251 24 -21 25 -27 29 -148 l3 -126 33 -32 32 -33 119 -4 c194 -5 221 18 221
198 l0 111 545 0 545 0 0 -116 0 -116 33 -33 c30 -30 39 -33 117 -39 90 -7
172 -1 203 15 44 24 57 67 57 190 0 94 3 118 15 123 8 3 24 20 35 38 18 30 20
51 20 223 0 202 -11 276 -51 343 -24 41 -24 45 0 37 26 -8 85 18 105 46 10 14
16 44 16 75 0 91 -52 127 -175 123 -36 -1 -69 2 -74 7 -4 5 -32 78 -61 162
-75 218 -124 293 -223 348 l-52 29 -300 1 c-165 0 -399 -2 -520 -5z m807 -224
c21 -17 43 -66 94 -207 37 -102 69 -191 71 -197 4 -10 -132 -13 -661 -13 -366
0 -666 4 -666 9 0 7 103 292 132 365 6 15 25 37 42 47 29 18 59 19 496 19
l465 0 27 -23z m-1081 -690 c75 -50 99 -134 60 -207 -57 -108 -215 -108 -272
0 -73 136 86 292 212 207z m1336 -5 c61 -44 82 -145 43 -210 -62 -101 -220
-96 -272 8 -37 74 -10 167 61 209 46 28 124 25 168 -7z m-449 -154 c15 -15 15
-61 0 -76 -17 -17 -589 -17 -606 0 -17 17 -15 54 4 72 13 14 55 16 303 16 210
0 290 -3 299 -12z"/>
<path d="M2015 4799 c-38 -22 -45 -41 -45 -126 0 -76 2 -86 25 -108 l24 -25
738 0 c812 0 819 -1 942 -61 111 -55 447 -399 515 -528 77 -147 76 -135 76
-941 0 -851 -14 -770 131 -770 82 0 92 2 114 25 l25 24 0 704 c0 811 -1 823
-74 972 -25 50 -67 115 -95 146 l-50 56 -78 5 c-101 6 -169 35 -227 98 -63 67
-77 106 -86 240 l-8 115 -39 33 c-50 44 -180 106 -268 128 -63 16 -146 18
-835 21 -556 2 -770 0 -785 -8z"/>
<path d="M6700 4800 c-116 -11 -238 -53 -330 -115 l-75 -50 -6 -100 c-7 -126
-28 -191 -83 -252 -62 -68 -123 -97 -218 -101 l-78 -4 -55 -60 c-60 -65 -113
-160 -141 -254 -16 -54 -18 -126 -21 -817 l-4 -757 25 -25 c23 -23 33 -25 109
-25 69 0 89 4 108 19 l24 19 5 764 c5 763 5 763 28 823 43 114 99 191 265 366
173 182 247 241 357 281 l65 23 776 5 c912 6 819 -10 819 135 0 144 85 130
-764 131 -396 1 -759 -2 -806 -6z"/>
</g>
</svg>
